<svg width="24" height="24" viewBox="0 0 24 24" fill="none" xmlns="http://www.w3.org/2000/svg">
<path d="M24 11H13V0C15.8412 0.228368 18.5083 1.46063 20.5239 3.47614C22.5394 5.49166 23.7716 8.1588 24 11Z" fill="black"/>
<path d="M24 13C23.801 15.2756 22.9565 17.4471 21.566 19.2594C20.1754 21.0716 18.2965 22.4493 16.15 23.2306C14.0035 24.0119 11.6786 24.1643 9.44842 23.6699C7.21829 23.1755 5.17559 22.0549 3.56036 20.4396C1.94513 18.8244 0.824475 16.7817 0.330077 14.5516C-0.164321 12.3214 -0.0119213 9.99652 0.769369 7.85001C1.55066 5.70349 2.92838 3.82457 4.74064 2.43401C6.5529 1.04346 8.72441 0.199045 11 0V12C11 12.2652 11.1054 12.5196 11.2929 12.7071C11.4804 12.8946 11.7348 13 12 13H24Z" fill="black"/>
</svg>
