<svg width="24" height="24" viewBox="0 0 24 24" fill="none" xmlns="http://www.w3.org/2000/svg">
<path d="M16.5 3C15.5054 3 14.5516 3.39509 13.8483 4.09835C13.1451 4.80161 12.75 5.75544 12.75 6.75V8.25C12.7498 9.11449 13.0483 9.95249 13.595 10.6222C14.1417 11.2919 14.903 11.7521 15.75 11.925V13.635C15.3123 13.7897 14.9332 14.0761 14.6647 14.4547C14.3962 14.8334 14.2513 15.2858 14.25 15.75V18.75C14.25 19.3467 14.4871 19.919 14.909 20.341C15.331 20.7629 15.9033 21 16.5 21C17.0967 21 17.669 20.7629 18.091 20.341C18.5129 19.919 18.75 19.3467 18.75 18.75V15.75C18.7487 15.2858 18.6038 14.8334 18.3353 14.4547C18.0668 14.0761 17.6877 13.7897 17.25 13.635V11.925C18.097 11.7521 18.8583 11.2919 19.405 10.6222C19.9517 9.95249 20.2502 9.11449 20.25 8.25V6.75C20.25 5.75544 19.8549 4.80161 19.1517 4.09835C18.4484 3.39509 17.4946 3 16.5 3V3Z" fill="#FD3C4A"/>
<path d="M10.5 3C10.3011 3 10.1103 3.07902 9.96967 3.21967C9.82902 3.36032 9.75 3.55109 9.75 3.75V6.75C9.75 6.94891 9.67098 7.13968 9.53033 7.28033C9.38968 7.42098 9.19891 7.5 9 7.5C8.80109 7.5 8.61032 7.42098 8.46967 7.28033C8.32902 7.13968 8.25 6.94891 8.25 6.75V3.75C8.25 3.55109 8.17098 3.36032 8.03033 3.21967C7.88968 3.07902 7.69891 3 7.5 3C7.30109 3 7.11032 3.07902 6.96967 3.21967C6.82902 3.36032 6.75 3.55109 6.75 3.75V6.75C6.75 6.94891 6.67098 7.13968 6.53033 7.28033C6.38968 7.42098 6.19891 7.5 6 7.5C5.80109 7.5 5.61032 7.42098 5.46967 7.28033C5.32902 7.13968 5.25 6.94891 5.25 6.75V3.75C5.25 3.55109 5.17098 3.36032 5.03033 3.21967C4.88968 3.07902 4.69891 3 4.5 3C4.30109 3 4.11032 3.07902 3.96967 3.21967C3.82902 3.36032 3.75 3.55109 3.75 3.75V8.25C3.74982 9.11449 4.04834 9.95249 4.59502 10.6222C5.1417 11.2919 5.90298 11.7521 6.75 11.925V13.635C6.31234 13.7897 5.93325 14.0761 5.6647 14.4547C5.39616 14.8334 5.2513 15.2858 5.25 15.75V18.75C5.25 19.3467 5.48705 19.919 5.90901 20.341C6.33097 20.7629 6.90326 21 7.5 21C8.09674 21 8.66903 20.7629 9.09099 20.341C9.51295 19.919 9.75 19.3467 9.75 18.75V15.75C9.7487 15.2858 9.60384 14.8334 9.3353 14.4547C9.06675 14.0761 8.68766 13.7897 8.25 13.635V11.925C9.09702 11.7521 9.8583 11.2919 10.405 10.6222C10.9517 9.95249 11.2502 9.11449 11.25 8.25V3.75C11.25 3.55109 11.171 3.36032 11.0303 3.21967C10.8897 3.07902 10.6989 3 10.5 3V3Z" fill="#FD3C4A"/>
</svg>
