<svg width="24" height="24" viewBox="0 0 24 24" fill="none" xmlns="http://www.w3.org/2000/svg">
<path d="M17.3025 10.4551C16.7912 9.93737 16.2046 9.49992 15.5625 9.15764C15.3946 9.06369 15.2218 8.97857 15.045 8.90264C14.6885 8.74141 14.3199 8.6085 13.9425 8.50514L13.5825 8.42264C13.32 8.37014 13.065 8.33264 12.8325 8.30264H12.48H12.3C12.1078 8.28779 11.9147 8.28779 11.7225 8.30264H11.5575H11.28H11.175C10.9229 8.32428 10.6724 8.36186 10.425 8.41514L10.0725 8.49764C9.69843 8.60062 9.33244 8.73097 8.9775 8.88764C8.7975 8.97014 8.6175 9.05264 8.4525 9.14264C7.25798 9.78392 6.25963 10.737 5.56365 11.9005C4.86767 13.064 4.50008 14.3944 4.5 15.7501V18.0001C4.5 18.9947 4.89509 19.9485 5.59835 20.6518C6.30161 21.3551 7.25544 21.7501 8.25 21.7501H15.75C16.7446 21.7501 17.6984 21.3551 18.4017 20.6518C19.1049 19.9485 19.5 18.9947 19.5 18.0001V15.7501C19.5046 14.7657 19.3126 13.7903 18.9352 12.881C18.5579 11.9718 18.0028 11.147 17.3025 10.4551ZM11.625 14.2501H12.375C12.8723 14.2004 13.3689 14.3503 13.7557 14.6667C14.1425 14.9832 14.3878 15.4404 14.4375 15.9376C14.4872 16.4349 14.3374 16.9316 14.0209 17.3184C13.7044 17.7052 13.2473 17.9504 12.75 18.0001C12.75 18.199 12.671 18.3898 12.5303 18.5305C12.3897 18.6711 12.1989 18.7501 12 18.7501C11.8011 18.7501 11.6103 18.6711 11.4697 18.5305C11.329 18.3898 11.25 18.199 11.25 18.0001H10.5C10.3011 18.0001 10.1103 17.9211 9.96967 17.7805C9.82902 17.6398 9.75 17.449 9.75 17.2501C9.75 17.0512 9.82902 16.8605 9.96967 16.7198C10.1103 16.5792 10.3011 16.5001 10.5 16.5001H12.375C12.4745 16.5001 12.5698 16.4606 12.6402 16.3903C12.7105 16.32 12.75 16.2246 12.75 16.1251C12.75 16.0257 12.7105 15.9303 12.6402 15.86C12.5698 15.7896 12.4745 15.7501 12.375 15.7501H11.625C11.16 15.7506 10.7115 15.5783 10.3664 15.2666C10.0213 14.955 9.80434 14.5262 9.75761 14.0636C9.71088 13.6009 9.83771 13.1375 10.1135 12.7631C10.3893 12.3887 10.7943 12.1302 11.25 12.0376V12.0001C11.25 11.8012 11.329 11.6105 11.4697 11.4698C11.6103 11.3292 11.8011 11.2501 12 11.2501C12.1989 11.2501 12.3897 11.3292 12.5303 11.4698C12.671 11.6105 12.75 11.8012 12.75 12.0001H13.5C13.6989 12.0001 13.8897 12.0792 14.0303 12.2198C14.171 12.3605 14.25 12.5512 14.25 12.7501C14.25 12.949 14.171 13.1398 14.0303 13.2805C13.8897 13.4211 13.6989 13.5001 13.5 13.5001H11.625C11.5255 13.5001 11.4302 13.5396 11.3598 13.61C11.2895 13.6803 11.25 13.7757 11.25 13.8751C11.25 13.9746 11.2895 14.07 11.3598 14.1403C11.4302 14.2106 11.5255 14.2501 11.625 14.2501Z" fill="#00A86B"/>
<path d="M16.095 5.70753L15.8025 7.59753L15.66 7.50003C15.2432 7.31063 14.8118 7.15512 14.37 7.03503C13.596 6.83601 12.7991 6.74018 12 6.75003C11.1997 6.75263 10.4032 6.8585 9.63 7.06503C9.19376 7.18728 8.76752 7.34274 8.355 7.53003L8.1975 7.60503L7.905 5.70753C7.84486 5.31539 7.88947 4.91432 8.03432 4.54499C8.17916 4.17565 8.41908 3.85117 8.72976 3.60446C9.04044 3.35774 9.41083 3.19756 9.80338 3.14014C10.1959 3.08273 10.5967 3.13013 10.965 3.27753L11.715 3.57753C11.8932 3.6485 12.0918 3.6485 12.27 3.57753L13.02 3.27753C13.3883 3.13013 13.7891 3.08273 14.1816 3.14014C14.5742 3.19756 14.9446 3.35774 15.2552 3.60446C15.5659 3.85117 15.8058 4.17565 15.9507 4.54499C16.0955 4.91432 16.1401 5.31539 16.08 5.70753H16.095Z" fill="#00A86B"/>
</svg>
