<svg width="40" height="40" viewBox="0 0 40 40" fill="none" xmlns="http://www.w3.org/2000/svg">
<path d="M28.8375 16.1749C27.9854 15.312 27.0077 14.5829 25.9375 14.0124C25.6576 13.8558 25.3697 13.714 25.075 13.5874C24.4808 13.3187 23.8664 13.0972 23.2375 12.9249L22.6375 12.7874C22.2 12.6999 21.775 12.6374 21.3875 12.5874H20.8H20.5C20.1796 12.5627 19.8579 12.5627 19.5375 12.5874H19.2625H18.8H18.625C18.2048 12.6235 17.7873 12.6861 17.375 12.7749L16.7875 12.9124C16.1641 13.084 15.5541 13.3013 14.9625 13.5624C14.6625 13.6999 14.3625 13.8374 14.0875 13.9874C12.0966 15.0562 10.4327 16.6447 9.27275 18.5838C8.11278 20.523 7.50014 22.7403 7.5 24.9999V28.7499C7.5 30.4075 8.15848 31.9972 9.33058 33.1693C10.5027 34.3414 12.0924 34.9999 13.75 34.9999H26.25C27.9076 34.9999 29.4973 34.3414 30.6694 33.1693C31.8415 31.9972 32.5 30.4075 32.5 28.7499V24.9999C32.5077 23.3592 32.1876 21.7335 31.5587 20.2181C30.9298 18.7026 30.0046 17.3281 28.8375 16.1749ZM19.375 22.4999H20.625C21.4538 22.417 22.2816 22.6668 22.9262 23.1942C23.5709 23.7217 23.9796 24.4836 24.0625 25.3124C24.1454 26.1412 23.8956 26.969 23.3682 27.6136C22.8407 28.2583 22.0788 28.667 21.25 28.7499C21.25 29.0814 21.1183 29.3994 20.8839 29.6338C20.6495 29.8682 20.3315 29.9999 20 29.9999C19.6685 29.9999 19.3505 29.8682 19.1161 29.6338C18.8817 29.3994 18.75 29.0814 18.75 28.7499H17.5C17.1685 28.7499 16.8505 28.6182 16.6161 28.3838C16.3817 28.1494 16.25 27.8314 16.25 27.4999C16.25 27.1684 16.3817 26.8504 16.6161 26.616C16.8505 26.3816 17.1685 26.2499 17.5 26.2499H20.625C20.7908 26.2499 20.9497 26.1841 21.0669 26.0668C21.1842 25.9496 21.25 25.7907 21.25 25.6249C21.25 25.4591 21.1842 25.3002 21.0669 25.183C20.9497 25.0658 20.7908 24.9999 20.625 24.9999H19.375C18.6 25.0007 17.8524 24.7135 17.2773 24.194C16.7022 23.6746 16.3406 22.96 16.2627 22.189C16.1848 21.4179 16.3962 20.6454 16.8558 20.0215C17.3155 19.3975 17.9905 18.9666 18.75 18.8124V18.7499C18.75 18.4184 18.8817 18.1004 19.1161 17.866C19.3505 17.6316 19.6685 17.4999 20 17.4999C20.3315 17.4999 20.6495 17.6316 20.8839 17.866C21.1183 18.1004 21.25 18.4184 21.25 18.7499H22.5C22.8315 18.7499 23.1495 18.8816 23.3839 19.116C23.6183 19.3504 23.75 19.6684 23.75 19.9999C23.75 20.3314 23.6183 20.6494 23.3839 20.8838C23.1495 21.1182 22.8315 21.2499 22.5 21.2499H19.375C19.2092 21.2499 19.0503 21.3158 18.9331 21.433C18.8158 21.5502 18.75 21.7091 18.75 21.8749C18.75 22.0407 18.8158 22.1996 18.9331 22.3168C19.0503 22.4341 19.2092 22.4999 19.375 22.4999Z" fill="#00A86B"/>
<path d="M13.6625 11.425L13.925 11.3C14.6125 10.9878 15.3229 10.7288 16.05 10.525C17.3385 10.1808 18.6662 10.0043 20 10C21.334 9.99989 22.6622 10.1764 23.95 10.525C24.6848 10.7089 25.4038 10.9514 26.1 11.25L26.3375 11.3625L26.825 8.21251C26.9252 7.55894 26.8508 6.89049 26.6094 6.27493C26.368 5.65936 25.9681 5.11857 25.4503 4.70738C24.9325 4.29619 24.3152 4.02921 23.661 3.93352C23.0067 3.83783 22.3388 3.91683 21.725 4.16251L20.475 4.66251C20.178 4.78079 19.8469 4.78079 19.55 4.66251L18.3 4.16251C17.6861 3.91683 17.0182 3.83783 16.3639 3.93352C15.7097 4.02921 15.0924 4.29619 14.5746 4.70738C14.0568 5.11857 13.6569 5.65936 13.4155 6.27493C13.1741 6.89049 13.0997 7.55894 13.2 8.21251L13.6625 11.425Z" fill="#00A86B"/>
</svg>
