<svg width="40" height="40" viewBox="0 0 40 40" fill="none" xmlns="http://www.w3.org/2000/svg">
<path d="M31.25 25H8.74998H8.22498L9.22498 30C9.51314 31.4117 10.2802 32.6805 11.3963 33.5916C12.5125 34.5028 13.9092 35.0003 15.35 35H24.65C26.0908 35.0003 27.4875 34.5028 28.6036 33.5916C29.7197 32.6805 30.4868 31.4117 30.775 30L31.775 25H31.25ZM18.75 31.25C18.75 31.5815 18.6183 31.8995 18.3839 32.1339C18.1494 32.3683 17.8315 32.5 17.5 32.5C17.1685 32.5 16.8505 32.3683 16.6161 32.1339C16.3817 31.8995 16.25 31.5815 16.25 31.25V28.75C16.25 28.4185 16.3817 28.1005 16.6161 27.8661C16.8505 27.6317 17.1685 27.5 17.5 27.5C17.8315 27.5 18.1494 27.6317 18.3839 27.8661C18.6183 28.1005 18.75 28.4185 18.75 28.75V31.25ZM23.75 31.25C23.75 31.5815 23.6183 31.8995 23.3839 32.1339C23.1494 32.3683 22.8315 32.5 22.5 32.5C22.1685 32.5 21.8505 32.3683 21.6161 32.1339C21.3817 31.8995 21.25 31.5815 21.25 31.25V28.75C21.25 28.4185 21.3817 28.1005 21.6161 27.8661C21.8505 27.6317 22.1685 27.5 22.5 27.5C22.8315 27.5 23.1494 27.6317 23.3839 27.8661C23.6183 28.1005 23.75 28.4185 23.75 28.75V31.25Z" fill="#FCAC12"/>
<path d="M31.25 12.5H28.75V11.25C28.75 10.4292 28.5883 9.61651 28.2742 8.85823C27.9602 8.09994 27.4998 7.41095 26.9194 6.83058C26.3391 6.25022 25.6501 5.78984 24.8918 5.47575C24.1335 5.16166 23.3208 5 22.5 5H17.5C15.8424 5 14.2527 5.65848 13.0806 6.83058C11.9085 8.00269 11.25 9.5924 11.25 11.25V12.5H8.75C7.75544 12.5 6.80161 12.8951 6.09835 13.5983C5.39509 14.3016 5 15.2554 5 16.25V18.75C5 19.7446 5.39509 20.6984 6.09835 21.4017C6.80161 22.1049 7.75544 22.5 8.75 22.5H31.25C32.2446 22.5 33.1984 22.1049 33.9017 21.4017C34.6049 20.6984 35 19.7446 35 18.75V16.25C35 15.2554 34.6049 14.3016 33.9017 13.5983C33.1984 12.8951 32.2446 12.5 31.25 12.5ZM13.75 11.25C13.75 10.2554 14.1451 9.30161 14.8483 8.59835C15.5516 7.89509 16.5054 7.5 17.5 7.5H22.5C23.4946 7.5 24.4484 7.89509 25.1517 8.59835C25.8549 9.30161 26.25 10.2554 26.25 11.25V12.5H13.75V11.25Z" fill="#FCAC12"/>
</svg>
